<svg xmlns="http://www.w3.org/2000/svg" viewBox="0 0 440 150" role="img"
     aria-label="Keel — Automatic Mixing + Mastering for Finished Stems">
  <defs>
    <linearGradient id="teal" x1="0" y1="0" x2="0" y2="1">
      <stop offset="0" stop-color="#27D2C0"/>
      <stop offset="1" stop-color="#0C8C81"/>
    </linearGradient>
    <clipPath id="hull">
      <path d="M8,18 L28,96 Q60,120 92,96 L112,18 Z"/>
    </clipPath>
  </defs>

  <!-- waveform inside the hull (symmetric bell = a balanced, level hull) -->
  <g clip-path="url(#hull)" fill="url(#teal)">
    <rect x="56.5" y="30" width="7" height="80" rx="3.5"/>
    <rect x="45.5" y="40" width="7" height="70" rx="3.5"/>
    <rect x="67.5" y="40" width="7" height="70" rx="3.5"/>
    <rect x="34.5" y="52" width="7" height="58" rx="3.5"/>
    <rect x="78.5" y="52" width="7" height="58" rx="3.5"/>
    <rect x="23.5" y="66" width="7" height="44" rx="3.5"/>
    <rect x="89.5" y="66" width="7" height="44" rx="3.5"/>
  </g>

  <!-- hull outline (open top) -->
  <path d="M8,18 L28,96 Q60,120 92,96 L112,18" fill="none" stroke="url(#teal)"
        stroke-width="9" stroke-linecap="round" stroke-linejoin="round"/>

  <!-- wordmark (Space Grotesk Bold) + tagline (Space Grotesk Regular), outlined -->
  <path d="M155.77,85.01 L155.77,35.58 L165.09,35.58 L165.09,55.21 L166.36,55.21 L182.39,35.58 L194.32,35.58 L173.71,59.94 L195.03,85.01 L182.74,85.01 L166.36,64.96 L165.09,64.96 L165.09,85.01 L155.77,85.01 Z M215.09,86.00 C211.61,86.00 208.53,85.26 205.87,83.78 C203.21,82.29 201.14,80.20 199.66,77.49 C198.18,74.79 197.43,71.60 197.43,67.92 L197.43,67.08 C197.43,63.40 198.16,60.21 199.62,57.50 C201.08,54.80 203.13,52.70 205.77,51.22 C208.40,49.74 211.46,49.00 214.95,49.00 C218.38,49.00 221.37,49.76 223.92,51.29 C226.46,52.82 228.43,54.94 229.85,57.65 C231.26,60.36 231.97,63.50 231.97,67.08 L231.97,70.11 L206.47,70.11 C206.57,72.51 207.46,74.47 209.16,75.97 C210.85,77.48 212.92,78.23 215.37,78.23 C217.86,78.23 219.70,77.69 220.88,76.61 C222.05,75.52 222.95,74.32 223.56,73.01 L230.83,76.82 C230.18,78.04 229.22,79.37 227.98,80.81 C226.73,82.25 225.07,83.47 223.00,84.48 C220.93,85.49 218.29,86.00 215.09,86.00 Z M206.54,63.47 L222.93,63.47 C222.74,61.45 221.92,59.83 220.49,58.60 C219.06,57.38 217.18,56.77 214.87,56.77 C212.48,56.77 210.57,57.38 209.16,58.60 C207.75,59.83 206.87,61.45 206.54,63.47 Z M255.69,86.00 C252.21,86.00 249.14,85.26 246.48,83.78 C243.82,82.29 241.75,80.20 240.26,77.49 C238.78,74.79 238.04,71.60 238.04,67.92 L238.04,67.08 C238.04,63.40 238.77,60.21 240.23,57.50 C241.69,54.80 243.73,52.70 246.37,51.22 C249.01,49.74 252.07,49.00 255.55,49.00 C258.99,49.00 261.98,49.76 264.52,51.29 C267.06,52.82 269.04,54.94 270.45,57.65 C271.86,60.36 272.57,63.50 272.57,67.08 L272.57,70.11 L247.08,70.11 C247.17,72.51 248.07,74.47 249.76,75.97 C251.45,77.48 253.53,78.23 255.98,78.23 C258.47,78.23 260.30,77.69 261.48,76.61 C262.66,75.52 263.55,74.32 264.17,73.01 L271.44,76.82 C270.78,78.04 269.83,79.37 268.58,80.81 C267.34,82.25 265.68,83.47 263.60,84.48 C261.53,85.49 258.89,86.00 255.69,86.00 Z M247.15,63.47 L263.53,63.47 C263.34,61.45 262.53,59.83 261.10,58.60 C259.66,57.38 257.79,56.77 255.48,56.77 C253.08,56.77 251.18,57.38 249.76,58.60 C248.35,59.83 247.48,61.45 247.15,63.47 Z M280.34,85.01 L280.34,35.58 L289.24,35.58 L289.24,85.01 L280.34,85.01 Z" fill="#15A99A"/>
  <path d="M159.84,120.25 C159.07,120.25 158.38,120.12 157.76,119.85 C157.15,119.58 156.66,119.20 156.30,118.69 C155.95,118.19 155.77,117.57 155.77,116.84 C155.77,116.10 155.95,115.49 156.30,115.01 C156.66,114.52 157.15,114.16 157.76,113.91 C158.38,113.67 159.08,113.55 159.87,113.55 L163.54,113.55 L163.54,112.75 C163.54,111.97 163.32,111.36 162.87,110.92 C162.43,110.47 161.75,110.25 160.85,110.25 C159.97,110.25 159.28,110.47 158.79,110.90 C158.29,111.33 157.96,111.89 157.80,112.59 L156.15,112.05 C156.31,111.45 156.59,110.89 156.98,110.39 C157.38,109.90 157.89,109.50 158.53,109.19 C159.17,108.89 159.95,108.74 160.87,108.74 C162.25,108.74 163.33,109.10 164.11,109.82 C164.89,110.54 165.28,111.55 165.28,112.86 L165.28,117.78 C165.28,118.22 165.49,118.45 165.90,118.45 L166.91,118.45 L166.91,119.94 L165.37,119.94 C164.88,119.94 164.48,119.80 164.19,119.53 C163.89,119.25 163.74,118.88 163.74,118.42 L163.74,118.31 L163.48,118.31 C163.31,118.60 163.09,118.89 162.82,119.19 C162.54,119.50 162.17,119.75 161.69,119.95 C161.22,120.15 160.60,120.25 159.84,120.25 Z M160.05,118.74 C161.10,118.74 161.95,118.43 162.58,117.81 C163.22,117.19 163.54,116.33 163.54,115.22 L163.54,114.97 L159.94,114.97 C159.24,114.97 158.66,115.12 158.21,115.43 C157.76,115.73 157.53,116.19 157.53,116.80 C157.53,117.41 157.76,117.88 158.22,118.22 C158.68,118.57 159.29,118.74 160.05,118.74 Z M173.14,120.14 C172.34,120.14 171.61,119.97 170.96,119.63 C170.31,119.28 169.79,118.78 169.41,118.11 C169.03,117.44 168.84,116.62 168.84,115.64 L168.84,109.05 L170.60,109.05 L170.60,115.51 C170.60,116.59 170.87,117.38 171.42,117.87 C171.96,118.36 172.69,118.60 173.61,118.60 C174.65,118.60 175.50,118.26 176.17,117.58 C176.84,116.89 177.17,115.88 177.17,114.53 L177.17,109.05 L178.93,109.05 L178.93,119.94 L177.22,119.94 L177.22,118.09 L176.91,118.09 C176.67,118.61 176.26,119.08 175.68,119.50 C175.10,119.93 174.26,120.14 173.14,120.14 Z M186.57,119.94 C185.95,119.94 185.47,119.77 185.14,119.43 C184.80,119.08 184.63,118.62 184.63,118.02 L184.63,110.58 L181.36,110.58 L181.36,109.05 L184.63,109.05 L184.63,105.17 L186.39,105.17 L186.39,109.05 L189.96,109.05 L189.96,110.58 L186.39,110.58 L186.39,117.73 C186.39,118.18 186.61,118.40 187.04,118.40 L189.47,118.40 L189.47,119.94 L186.57,119.94 Z M197.39,120.25 C196.30,120.25 195.33,120.02 194.49,119.56 C193.65,119.10 193.00,118.45 192.53,117.61 C192.06,116.77 191.83,115.78 191.83,114.64 L191.83,114.35 C191.83,113.22 192.06,112.23 192.53,111.39 C193.00,110.54 193.65,109.89 194.49,109.43 C195.33,108.97 196.30,108.74 197.39,108.74 C198.49,108.74 199.46,108.97 200.30,109.43 C201.14,109.89 201.79,110.54 202.26,111.39 C202.73,112.23 202.96,113.22 202.96,114.35 L202.96,114.64 C202.96,115.78 202.73,116.77 202.26,117.61 C201.79,118.45 201.14,119.10 200.30,119.56 C199.46,120.02 198.49,120.25 197.39,120.25 Z M197.39,118.67 C198.54,118.67 199.46,118.30 200.16,117.57 C200.85,116.83 201.20,115.84 201.20,114.59 L201.20,114.39 C201.20,113.15 200.86,112.16 200.17,111.42 C199.48,110.68 198.55,110.32 197.39,110.32 C196.24,110.32 195.31,110.68 194.62,111.42 C193.93,112.16 193.59,113.15 193.59,114.39 L193.59,114.59 C193.59,115.84 193.93,116.83 194.62,117.57 C195.31,118.30 196.24,118.67 197.39,118.67 Z M206.17,119.94 L206.17,109.05 L207.89,109.05 L207.89,110.41 L208.20,110.41 C208.40,110.02 208.75,109.66 209.22,109.34 C209.70,109.01 210.37,108.85 211.23,108.85 C212.07,108.85 212.76,109.03 213.28,109.40 C213.80,109.78 214.18,110.23 214.43,110.76 L214.74,110.76 C214.98,110.23 215.36,109.78 215.87,109.40 C216.38,109.03 217.11,108.85 218.04,108.85 C219.12,108.85 220.01,109.18 220.70,109.84 C221.39,110.50 221.74,111.41 221.74,112.57 L221.74,119.94 L219.98,119.94 L219.98,112.72 C219.98,112.00 219.77,111.42 219.34,111.00 C218.92,110.57 218.33,110.36 217.57,110.36 C216.77,110.36 216.11,110.62 215.60,111.14 C215.09,111.66 214.83,112.41 214.83,113.39 L214.83,119.94 L213.07,119.94 L213.07,112.72 C213.07,112.00 212.86,111.42 212.44,111.00 C212.02,110.57 211.43,110.36 210.67,110.36 C209.87,110.36 209.21,110.62 208.70,111.14 C208.19,111.66 207.93,112.41 207.93,113.39 L207.93,119.94 L206.17,119.94 Z M228.66,120.25 C227.89,120.25 227.20,120.12 226.58,119.85 C225.97,119.58 225.48,119.20 225.12,118.69 C224.77,118.19 224.59,117.57 224.59,116.84 C224.59,116.10 224.77,115.49 225.12,115.01 C225.48,114.52 225.97,114.16 226.58,113.91 C227.20,113.67 227.90,113.55 228.69,113.55 L232.36,113.55 L232.36,112.75 C232.36,111.97 232.14,111.36 231.69,110.92 C231.25,110.47 230.57,110.25 229.67,110.25 C228.79,110.25 228.10,110.47 227.61,110.90 C227.11,111.33 226.78,111.89 226.62,112.59 L224.97,112.05 C225.13,111.45 225.41,110.89 225.80,110.39 C226.20,109.90 226.71,109.50 227.35,109.19 C227.99,108.89 228.77,108.74 229.69,108.74 C231.07,108.74 232.15,109.10 232.93,109.82 C233.71,110.54 234.10,111.55 234.10,112.86 L234.10,117.78 C234.10,118.22 234.31,118.45 234.72,118.45 L235.72,118.45 L235.72,119.94 L234.19,119.94 C233.70,119.94 233.30,119.80 233.01,119.53 C232.71,119.25 232.56,118.88 232.56,118.42 L232.56,118.31 L232.29,118.31 C232.13,118.60 231.91,118.89 231.64,119.19 C231.36,119.50 230.99,119.75 230.51,119.95 C230.04,120.15 229.42,120.25 228.66,120.25 Z M228.87,118.74 C229.92,118.74 230.76,118.43 231.40,117.81 C232.04,117.19 232.36,116.33 232.36,115.22 L232.36,114.97 L228.75,114.97 C228.06,114.97 227.48,115.12 227.03,115.43 C226.57,115.73 226.35,116.19 226.35,116.80 C226.35,117.41 226.58,117.88 227.04,118.22 C227.50,118.57 228.11,118.74 228.87,118.74 Z M241.47,119.94 C240.85,119.94 240.37,119.77 240.03,119.43 C239.70,119.08 239.53,118.62 239.53,118.02 L239.53,110.58 L236.26,110.58 L236.26,109.05 L239.53,109.05 L239.53,105.17 L241.29,105.17 L241.29,109.05 L244.86,109.05 L244.86,110.58 L241.29,110.58 L241.29,117.73 C241.29,118.18 241.51,118.40 241.94,118.40 L244.37,118.40 L244.37,119.94 L241.47,119.94 Z M247.71,119.94 L247.71,109.05 L249.47,109.05 L249.47,119.94 L247.71,119.94 Z M248.60,107.36 C248.21,107.36 247.89,107.23 247.63,106.98 C247.37,106.72 247.24,106.41 247.24,106.02 C247.24,105.62 247.37,105.29 247.63,105.04 C247.89,104.79 248.21,104.66 248.60,104.66 C248.98,104.66 249.30,104.79 249.55,105.04 C249.81,105.29 249.93,105.62 249.93,106.02 C249.93,106.41 249.81,106.72 249.55,106.98 C249.30,107.23 248.98,107.36 248.60,107.36 Z M258.17,120.25 C257.12,120.25 256.17,120.02 255.33,119.57 C254.50,119.12 253.83,118.47 253.35,117.63 C252.87,116.79 252.63,115.79 252.63,114.62 L252.63,114.37 C252.63,113.20 252.87,112.19 253.35,111.35 C253.83,110.51 254.50,109.87 255.33,109.42 C256.17,108.96 257.12,108.74 258.17,108.74 C259.21,108.74 260.10,108.93 260.84,109.33 C261.57,109.72 262.15,110.23 262.57,110.86 C263.00,111.49 263.27,112.17 263.38,112.90 L261.67,113.26 C261.57,112.46 261.23,111.77 260.67,111.19 C260.10,110.61 259.28,110.32 258.20,110.32 C257.47,110.32 256.82,110.48 256.25,110.81 C255.68,111.13 255.22,111.60 254.89,112.21 C254.55,112.82 254.39,113.55 254.39,114.39 L254.39,114.59 C254.39,115.44 254.55,116.17 254.89,116.78 C255.22,117.38 255.68,117.85 256.25,118.18 C256.82,118.51 257.47,118.67 258.20,118.67 C259.28,118.67 260.11,118.39 260.68,117.82 C261.25,117.26 261.60,116.56 261.74,115.73 L263.47,116.11 C263.31,116.84 263.01,117.52 262.58,118.15 C262.15,118.78 261.57,119.29 260.84,119.67 C260.10,120.06 259.21,120.25 258.17,120.25 Z M272.20,119.94 L272.20,109.05 L273.92,109.05 L273.92,110.41 L274.23,110.41 C274.44,110.02 274.78,109.66 275.26,109.34 C275.73,109.01 276.40,108.85 277.26,108.85 C278.11,108.85 278.79,109.03 279.31,109.40 C279.83,109.78 280.22,110.23 280.47,110.76 L280.78,110.76 C281.02,110.23 281.39,109.78 281.90,109.40 C282.42,109.03 283.14,108.85 284.08,108.85 C285.16,108.85 286.05,109.18 286.74,109.84 C287.43,110.50 287.77,111.41 287.77,112.57 L287.77,119.94 L286.01,119.94 L286.01,112.72 C286.01,112.00 285.80,111.42 285.38,111.00 C284.96,110.57 284.37,110.36 283.61,110.36 C282.81,110.36 282.15,110.62 281.64,111.14 C281.13,111.66 280.87,112.41 280.87,113.39 L280.87,119.94 L279.11,119.94 L279.11,112.72 C279.11,112.00 278.90,111.42 278.47,111.00 C278.05,110.57 277.46,110.36 276.70,110.36 C275.90,110.36 275.25,110.62 274.73,111.14 C274.22,111.66 273.97,112.41 273.97,113.39 L273.97,119.94 L272.20,119.94 Z M291.36,119.94 L291.36,109.05 L293.12,109.05 L293.12,119.94 L291.36,119.94 Z M292.25,107.36 C291.86,107.36 291.54,107.23 291.28,106.98 C291.02,106.72 290.89,106.41 290.89,106.02 C290.89,105.62 291.02,105.29 291.28,105.04 C291.54,104.79 291.86,104.66 292.25,104.66 C292.63,104.66 292.95,104.79 293.21,105.04 C293.46,105.29 293.58,105.62 293.58,106.02 C293.58,106.41 293.46,106.72 293.21,106.98 C292.95,107.23 292.63,107.36 292.25,107.36 Z M295.92,119.94 L300.29,114.42 L296.06,109.05 L298.17,109.05 L301.43,113.26 L301.74,113.26 L304.97,109.05 L307.10,109.05 L302.85,114.42 L307.22,119.94 L305.08,119.94 L301.74,115.60 L301.43,115.60 L298.08,119.94 L295.92,119.94 Z M319.96,116.82 L319.96,112.95 L316.12,112.95 L316.12,111.34 L319.96,111.34 L319.96,107.47 L321.65,107.47 L321.65,111.34 L325.48,111.34 L325.48,112.95 L321.65,112.95 L321.65,116.82 L319.96,116.82 Z M335.23,119.94 L335.23,109.05 L336.95,109.05 L336.95,110.41 L337.26,110.41 C337.47,110.02 337.81,109.66 338.28,109.34 C338.76,109.01 339.43,108.85 340.29,108.85 C341.14,108.85 341.82,109.03 342.34,109.40 C342.86,109.78 343.24,110.23 343.50,110.76 L343.81,110.76 C344.04,110.23 344.42,109.78 344.93,109.40 C345.44,109.03 346.17,108.85 347.10,108.85 C348.19,108.85 349.07,109.18 349.76,109.84 C350.45,110.50 350.80,111.41 350.80,112.57 L350.80,119.94 L349.04,119.94 L349.04,112.72 C349.04,112.00 348.83,111.42 348.41,111.00 C347.98,110.57 347.39,110.36 346.64,110.36 C345.83,110.36 345.18,110.62 344.67,111.14 C344.15,111.66 343.90,112.41 343.90,113.39 L343.90,119.94 L342.14,119.94 L342.14,112.72 C342.14,112.00 341.93,111.42 341.50,111.00 C341.08,110.57 340.49,110.36 339.73,110.36 C338.93,110.36 338.27,110.62 337.76,111.14 C337.25,111.66 336.99,112.41 336.99,113.39 L336.99,119.94 L335.23,119.94 Z M357.73,120.25 C356.96,120.25 356.26,120.12 355.64,119.85 C355.03,119.58 354.54,119.20 354.19,118.69 C353.83,118.19 353.65,117.57 353.65,116.84 C353.65,116.10 353.83,115.49 354.19,115.01 C354.54,114.52 355.03,114.16 355.64,113.91 C356.26,113.67 356.96,113.55 357.75,113.55 L361.42,113.55 L361.42,112.75 C361.42,111.97 361.20,111.36 360.76,110.92 C360.31,110.47 359.63,110.25 358.73,110.25 C357.85,110.25 357.17,110.47 356.67,110.90 C356.17,111.33 355.84,111.89 355.68,112.59 L354.03,112.05 C354.19,111.45 354.47,110.89 354.87,110.39 C355.26,109.90 355.78,109.50 356.41,109.19 C357.05,108.89 357.83,108.74 358.75,108.74 C360.13,108.74 361.21,109.10 361.99,109.82 C362.77,110.54 363.16,111.55 363.16,112.86 L363.16,117.78 C363.16,118.22 363.37,118.45 363.79,118.45 L364.79,118.45 L364.79,119.94 L363.25,119.94 C362.76,119.94 362.37,119.80 362.07,119.53 C361.77,119.25 361.62,118.88 361.62,118.42 L361.62,118.31 L361.36,118.31 C361.19,118.60 360.98,118.89 360.70,119.19 C360.43,119.50 360.05,119.75 359.58,119.95 C359.10,120.15 358.48,120.25 357.73,120.25 Z M357.93,118.74 C358.98,118.74 359.83,118.43 360.47,117.81 C361.10,117.19 361.42,116.33 361.42,115.22 L361.42,114.97 L357.82,114.97 C357.12,114.97 356.54,115.12 356.09,115.43 C355.64,115.73 355.41,116.19 355.41,116.80 C355.41,117.41 355.64,117.88 356.10,118.22 C356.56,118.57 357.17,118.74 357.93,118.74 Z M371.47,120.25 C370.10,120.25 368.96,119.94 368.04,119.31 C367.12,118.69 366.56,117.70 366.37,116.35 L368.04,115.97 C368.14,116.69 368.36,117.25 368.70,117.66 C369.03,118.06 369.44,118.35 369.92,118.52 C370.40,118.69 370.92,118.78 371.47,118.78 C372.29,118.78 372.93,118.62 373.41,118.30 C373.88,117.98 374.12,117.54 374.12,116.98 C374.12,116.41 373.89,116.01 373.44,115.78 C372.99,115.55 372.37,115.36 371.58,115.22 L370.67,115.06 C369.95,114.94 369.31,114.76 368.74,114.50 C368.17,114.25 367.71,113.91 367.37,113.48 C367.03,113.05 366.86,112.51 366.86,111.85 C366.86,110.87 367.24,110.11 367.99,109.56 C368.75,109.01 369.75,108.74 371.00,108.74 C372.23,108.74 373.23,109.02 374.00,109.57 C374.76,110.13 375.25,110.91 375.48,111.92 L373.83,112.34 C373.70,111.56 373.38,111.00 372.87,110.68 C372.37,110.37 371.74,110.21 371.00,110.21 C370.26,110.21 369.67,110.35 369.24,110.63 C368.81,110.91 368.60,111.31 368.60,111.83 C368.60,112.35 368.80,112.73 369.21,112.98 C369.62,113.22 370.16,113.41 370.85,113.53 L371.76,113.68 C372.53,113.81 373.22,114.00 373.84,114.23 C374.46,114.46 374.95,114.79 375.31,115.22 C375.67,115.65 375.86,116.21 375.86,116.91 C375.86,117.98 375.46,118.80 374.67,119.38 C373.87,119.96 372.81,120.25 371.47,120.25 Z M382.56,119.94 C381.94,119.94 381.46,119.77 381.12,119.43 C380.79,119.08 380.62,118.62 380.62,118.02 L380.62,110.58 L377.35,110.58 L377.35,109.05 L380.62,109.05 L380.62,105.17 L382.38,105.17 L382.38,109.05 L385.95,109.05 L385.95,110.58 L382.38,110.58 L382.38,117.73 C382.38,118.18 382.60,118.40 383.03,118.40 L385.45,118.40 L385.45,119.94 L382.56,119.94 Z M393.34,120.25 C392.24,120.25 391.27,120.02 390.44,119.55 C389.61,119.08 388.97,118.42 388.51,117.58 C388.05,116.73 387.82,115.75 387.82,114.64 L387.82,114.37 C387.82,113.24 388.05,112.25 388.51,111.41 C388.97,110.56 389.61,109.91 390.42,109.44 C391.24,108.97 392.17,108.74 393.23,108.74 C394.25,108.74 395.16,108.96 395.95,109.40 C396.73,109.85 397.35,110.48 397.79,111.29 C398.24,112.10 398.46,113.05 398.46,114.15 L398.46,114.95 L389.60,114.95 C389.63,116.12 390.00,117.04 390.70,117.70 C391.41,118.36 392.30,118.69 393.38,118.69 C394.32,118.69 395.04,118.48 395.54,118.06 C396.05,117.63 396.43,117.12 396.70,116.51 L398.22,117.24 C397.99,117.70 397.69,118.16 397.30,118.62 C396.92,119.09 396.40,119.47 395.77,119.78 C395.13,120.09 394.32,120.25 393.34,120.25 Z M389.62,113.50 L396.68,113.50 C396.62,112.49 396.27,111.71 395.64,111.14 C395.01,110.58 394.21,110.30 393.23,110.30 C392.23,110.30 391.42,110.58 390.78,111.14 C390.14,111.71 389.75,112.49 389.62,113.50 Z M401.49,119.94 L401.49,109.05 L403.21,109.05 L403.21,110.38 L403.52,110.38 C403.87,109.46 404.70,109.00 405.99,109.00 L407.28,109.00 L407.28,110.61 L405.88,110.61 C405.08,110.61 404.44,110.83 403.96,111.26 C403.49,111.70 403.25,112.38 403.25,113.30 L403.25,119.94 L401.49,119.94 Z" fill="#5FA8A1"/>
</svg>
