<svg xmlns="http://www.w3.org/2000/svg" viewBox="0 0 440 150" role="img"
     aria-label="Keel — Automatic Mixing + Mastering for Finished Stems">
  <defs>
    <linearGradient id="teal" x1="0" y1="0" x2="0" y2="1">
      <stop offset="0" stop-color="#27D2C0"/>
      <stop offset="1" stop-color="#0C8C81"/>
    </linearGradient>
    <clipPath id="hull">
      <path d="M8,18 L28,96 Q60,120 92,96 L112,18 Z"/>
    </clipPath>
  </defs>

  <!-- waveform inside the hull (symmetric bell = a balanced, level hull) -->
  <g clip-path="url(#hull)" fill="url(#teal)">
    <rect x="56.5" y="30" width="7" height="80" rx="3.5"/>
    <rect x="45.5" y="40" width="7" height="70" rx="3.5"/>
    <rect x="67.5" y="40" width="7" height="70" rx="3.5"/>
    <rect x="34.5" y="52" width="7" height="58" rx="3.5"/>
    <rect x="78.5" y="52" width="7" height="58" rx="3.5"/>
    <rect x="23.5" y="66" width="7" height="44" rx="3.5"/>
    <rect x="89.5" y="66" width="7" height="44" rx="3.5"/>
  </g>

  <!-- hull outline (open top) -->
  <path d="M8,18 L28,96 Q60,120 92,96 L112,18" fill="none" stroke="url(#teal)"
        stroke-width="9" stroke-linecap="round" stroke-linejoin="round"/>

  <!-- wordmark + tagline, outlined to paths (font-independent) -->
  <path d="M197.67,86.00L183.33,86.00L168.64,64.09C168.36,63.68 167.91,62.75 167.30,61.31L167.12,61.31L167.12,86.00L155.77,86.00L155.77,35.58L167.12,35.58L167.12,59.42L167.30,59.42C167.58,58.77 168.05,57.83 168.70,56.61L182.62,35.58L196.16,35.58L178.58,59.62L197.67,86.00ZM232.02,71.16L208.53,71.16C208.91,76.39 212.20,79.00 218.42,79.00C222.38,79.00 225.86,78.06 228.86,76.19L228.86,84.20C225.53,85.98 221.20,86.88 215.89,86.88C210.08,86.88 205.57,85.26 202.35,82.04C199.14,78.82 197.53,74.32 197.53,68.56C197.53,62.58 199.27,57.85 202.73,54.36C206.20,50.87 210.47,49.12 215.53,49.12C220.78,49.12 224.84,50.68 227.71,53.80C230.58,56.91 232.02,61.14 232.02,66.48L232.02,71.16ZM221.72,64.34C221.72,59.19 219.64,56.61 215.47,56.61C213.69,56.61 212.15,57.35 210.84,58.82C209.54,60.29 208.75,62.14 208.47,64.34L221.72,64.34ZM270.02,71.16L246.53,71.16C246.91,76.39 250.20,79.00 256.42,79.00C260.38,79.00 263.86,78.06 266.86,76.19L266.86,84.20C263.53,85.98 259.20,86.88 253.89,86.88C248.08,86.88 243.57,85.26 240.35,82.04C237.14,78.82 235.53,74.32 235.53,68.56C235.53,62.58 237.27,57.85 240.73,54.36C244.20,50.87 248.47,49.12 253.53,49.12C258.78,49.12 262.84,50.68 265.71,53.80C268.58,56.91 270.02,61.14 270.02,66.48L270.02,71.16ZM259.72,64.34C259.72,59.19 257.64,56.61 253.47,56.61C251.69,56.61 250.15,57.35 248.84,58.82C247.54,60.29 246.75,62.14 246.47,64.34L259.72,64.34ZM286.78,86.00L275.67,86.00L275.67,32.70L286.78,32.70L286.78,86.00Z" fill="#15A99A"/>
  <path d="M161.22,120.00L159.53,120.00L159.53,118.36L159.50,118.36C158.77,119.62 157.69,120.25 156.27,120.25C155.22,120.25 154.41,119.97 153.81,119.41C153.22,118.86 152.92,118.12 152.92,117.20C152.92,115.24 154.08,114.10 156.39,113.78L159.53,113.34C159.53,111.56 158.81,110.67 157.38,110.67C156.10,110.67 154.96,111.10 153.95,111.95L153.95,110.23C154.98,109.58 156.17,109.25 157.52,109.25C159.98,109.25 161.22,110.56 161.22,113.17L161.22,120.00ZM159.53,114.69L157.00,115.03C156.22,115.15 155.63,115.34 155.23,115.62C154.84,115.89 154.64,116.39 154.64,117.09C154.64,117.60 154.83,118.02 155.20,118.34C155.57,118.67 156.05,118.83 156.66,118.83C157.49,118.83 158.18,118.54 158.72,117.95C159.26,117.37 159.53,116.63 159.53,115.73L159.53,114.69ZM173.58,120.00L171.91,120.00L171.91,118.34L171.86,118.34C171.16,119.61 170.08,120.25 168.62,120.25C166.12,120.25 164.88,118.76 164.88,115.78L164.88,109.50L166.53,109.50L166.53,115.52C166.53,117.72 167.38,118.83 169.08,118.83C169.90,118.83 170.58,118.53 171.11,117.92C171.64,117.32 171.91,116.53 171.91,115.55L171.91,109.50L173.58,109.50L173.58,120.00ZM182.36,119.89C181.96,120.11 181.44,120.22 180.78,120.22C178.95,120.22 178.03,119.20 178.03,117.16L178.03,110.94L176.22,110.94L176.22,109.50L178.03,109.50L178.03,106.94L179.70,106.39L179.70,109.50L182.36,109.50L182.36,110.94L179.70,110.94L179.70,116.86C179.70,117.56 179.82,118.06 180.06,118.36C180.30,118.66 180.70,118.81 181.25,118.81C181.68,118.81 182.05,118.70 182.36,118.47L182.36,119.89ZM189.27,120.25C187.71,120.25 186.47,119.76 185.55,118.77C184.62,117.79 184.16,116.49 184.16,114.88C184.16,113.11 184.64,111.74 185.60,110.74C186.57,109.75 187.87,109.25 189.52,109.25C191.08,109.25 192.30,109.73 193.18,110.70C194.06,111.66 194.50,112.99 194.50,114.70C194.50,116.38 194.03,117.72 193.08,118.73C192.13,119.74 190.86,120.25 189.27,120.25ZM189.39,110.67C188.31,110.67 187.45,111.04 186.82,111.77C186.19,112.51 185.88,113.52 185.88,114.81C185.88,116.05 186.19,117.03 186.83,117.75C187.46,118.47 188.32,118.83 189.39,118.83C190.47,118.83 191.31,118.48 191.89,117.77C192.47,117.07 192.77,116.07 192.77,114.77C192.77,113.45 192.47,112.44 191.89,111.73C191.31,111.03 190.47,110.67 189.39,110.67ZM212.17,120.00L210.50,120.00L210.50,113.97C210.50,112.81 210.32,111.97 209.96,111.45C209.60,110.93 208.99,110.67 208.14,110.67C207.42,110.67 206.81,111.00 206.31,111.66C205.81,112.31 205.56,113.10 205.56,114.02L205.56,120.00L203.88,120.00L203.88,113.77C203.88,111.70 203.08,110.67 201.48,110.67C200.74,110.67 200.14,110.98 199.66,111.60C199.19,112.22 198.95,113.03 198.95,114.02L198.95,120.00L197.27,120.00L197.27,109.50L198.95,109.50L198.95,111.16L198.98,111.16C199.73,109.89 200.82,109.25 202.25,109.25C202.97,109.25 203.59,109.45 204.12,109.85C204.66,110.25 205.02,110.78 205.22,111.42C206.00,109.97 207.16,109.25 208.70,109.25C211.02,109.25 212.17,110.68 212.17,113.53L212.17,120.00ZM223.17,120.00L221.48,120.00L221.48,118.36L221.45,118.36C220.72,119.62 219.65,120.25 218.22,120.25C217.18,120.25 216.36,119.97 215.77,119.41C215.17,118.86 214.88,118.12 214.88,117.20C214.88,115.24 216.03,114.10 218.34,113.78L221.48,113.34C221.48,111.56 220.77,110.67 219.33,110.67C218.06,110.67 216.92,111.10 215.91,111.95L215.91,110.23C216.94,109.58 218.12,109.25 219.47,109.25C221.94,109.25 223.17,110.56 223.17,113.17L223.17,120.00ZM221.48,114.69L218.95,115.03C218.17,115.15 217.58,115.34 217.19,115.62C216.79,115.89 216.59,116.39 216.59,117.09C216.59,117.60 216.78,118.02 217.15,118.34C217.52,118.67 218.01,118.83 218.61,118.83C219.44,118.83 220.13,118.54 220.67,117.95C221.21,117.37 221.48,116.63 221.48,115.73L221.48,114.69ZM231.92,119.89C231.53,120.11 231.00,120.22 230.34,120.22C228.51,120.22 227.59,119.20 227.59,117.16L227.59,110.94L225.78,110.94L225.78,109.50L227.59,109.50L227.59,106.94L229.27,106.39L229.27,109.50L231.92,109.50L231.92,110.94L229.27,110.94L229.27,116.86C229.27,117.56 229.39,118.06 229.62,118.36C229.86,118.66 230.26,118.81 230.81,118.81C231.24,118.81 231.61,118.70 231.92,118.47L231.92,119.89ZM235.30,106.83C234.99,106.83 234.74,106.73 234.53,106.52C234.32,106.32 234.22,106.06 234.22,105.75C234.22,105.44 234.32,105.18 234.53,104.97C234.74,104.76 234.99,104.66 235.30,104.66C235.61,104.66 235.87,104.76 236.09,104.97C236.30,105.18 236.41,105.44 236.41,105.75C236.41,106.05 236.30,106.31 236.09,106.52C235.87,106.72 235.61,106.83 235.30,106.83ZM236.12,120.00L234.44,120.00L234.44,109.50L236.12,109.50L236.12,120.00ZM246.98,119.52C246.18,120.01 245.22,120.25 244.11,120.25C242.62,120.25 241.41,119.76 240.49,118.79C239.57,117.82 239.11,116.55 239.11,115.00C239.11,113.27 239.60,111.88 240.59,110.83C241.58,109.78 242.91,109.25 244.56,109.25C245.49,109.25 246.30,109.42 247.00,109.77L247.00,111.48C246.23,110.94 245.40,110.67 244.50,110.67C243.43,110.67 242.55,111.05 241.86,111.82C241.17,112.59 240.83,113.60 240.83,114.86C240.83,116.09 241.15,117.06 241.80,117.77C242.44,118.47 243.31,118.83 244.41,118.83C245.32,118.83 246.18,118.53 246.98,117.92L246.98,119.52ZM271.52,120.00L269.84,120.00L269.84,113.97C269.84,112.81 269.66,111.97 269.30,111.45C268.95,110.93 268.34,110.67 267.48,110.67C266.77,110.67 266.16,111.00 265.66,111.66C265.16,112.31 264.91,113.10 264.91,114.02L264.91,120.00L263.22,120.00L263.22,113.77C263.22,111.70 262.42,110.67 260.83,110.67C260.09,110.67 259.48,110.98 259.01,111.60C258.53,112.22 258.30,113.03 258.30,114.02L258.30,120.00L256.61,120.00L256.61,109.50L258.30,109.50L258.30,111.16L258.33,111.16C259.08,109.89 260.17,109.25 261.59,109.25C262.31,109.25 262.94,109.45 263.47,109.85C264.00,110.25 264.36,110.78 264.56,111.42C265.34,109.97 266.51,109.25 268.05,109.25C270.36,109.25 271.52,110.68 271.52,113.53L271.52,120.00ZM275.86,106.83C275.56,106.83 275.30,106.73 275.09,106.52C274.89,106.32 274.78,106.06 274.78,105.75C274.78,105.44 274.89,105.18 275.09,104.97C275.30,104.76 275.56,104.66 275.86,104.66C276.17,104.66 276.43,104.76 276.65,104.97C276.86,105.18 276.97,105.44 276.97,105.75C276.97,106.05 276.86,106.31 276.65,106.52C276.43,106.72 276.17,106.83 275.86,106.83ZM276.69,120.00L275.00,120.00L275.00,109.50L276.69,109.50L276.69,120.00ZM288.06,109.50L284.53,114.81L288.00,120.00L286.05,120.00L283.98,116.59C283.85,116.39 283.69,116.12 283.52,115.80L283.47,115.80C283.44,115.86 283.28,116.12 283.00,116.59L280.89,120.00L278.95,120.00L282.53,114.86L279.11,109.50L281.06,109.50L283.09,113.09C283.25,113.35 283.40,113.62 283.53,113.91L283.58,113.91L286.20,109.50L288.06,109.50ZM307.48,114.56L303.34,114.56L303.34,118.70L301.98,118.70L301.98,114.56L297.84,114.56L297.84,113.19L301.98,113.19L301.98,109.06L303.34,109.06L303.34,113.19L307.48,113.19L307.48,114.56ZM332.86,120.00L331.19,120.00L331.19,113.97C331.19,112.81 331.01,111.97 330.65,111.45C330.29,110.93 329.68,110.67 328.83,110.67C328.11,110.67 327.50,111.00 327.00,111.66C326.50,112.31 326.25,113.10 326.25,114.02L326.25,120.00L324.56,120.00L324.56,113.77C324.56,111.70 323.77,110.67 322.17,110.67C321.43,110.67 320.83,110.98 320.35,111.60C319.88,112.22 319.64,113.03 319.64,114.02L319.64,120.00L317.95,120.00L317.95,109.50L319.64,109.50L319.64,111.16L319.67,111.16C320.42,109.89 321.51,109.25 322.94,109.25C323.66,109.25 324.28,109.45 324.81,109.85C325.34,110.25 325.71,110.78 325.91,111.42C326.69,109.97 327.85,109.25 329.39,109.25C331.70,109.25 332.86,110.68 332.86,113.53L332.86,120.00ZM343.86,120.00L342.17,120.00L342.17,118.36L342.14,118.36C341.41,119.62 340.33,120.25 338.91,120.25C337.86,120.25 337.05,119.97 336.45,119.41C335.86,118.86 335.56,118.12 335.56,117.20C335.56,115.24 336.72,114.10 339.03,113.78L342.17,113.34C342.17,111.56 341.45,110.67 340.02,110.67C338.74,110.67 337.60,111.10 336.59,111.95L336.59,110.23C337.62,109.58 338.81,109.25 340.16,109.25C342.62,109.25 343.86,110.56 343.86,113.17L343.86,120.00ZM342.17,114.69L339.64,115.03C338.86,115.15 338.27,115.34 337.88,115.62C337.48,115.89 337.28,116.39 337.28,117.09C337.28,117.60 337.47,118.02 337.84,118.34C338.21,118.67 338.69,118.83 339.30,118.83C340.13,118.83 340.82,118.54 341.36,117.95C341.90,117.37 342.17,116.63 342.17,115.73L342.17,114.69ZM347.09,119.62L347.09,117.81C348.01,118.49 349.02,118.83 350.12,118.83C351.60,118.83 352.34,118.34 352.34,117.36C352.34,117.08 352.28,116.84 352.15,116.64C352.02,116.44 351.85,116.27 351.63,116.12C351.42,115.97 351.17,115.83 350.88,115.72C350.58,115.60 350.27,115.48 349.94,115.34C349.47,115.16 349.06,114.97 348.71,114.78C348.36,114.59 348.07,114.38 347.84,114.15C347.60,113.91 347.42,113.65 347.30,113.34C347.18,113.04 347.12,112.69 347.12,112.28C347.12,111.79 347.24,111.36 347.46,110.98C347.68,110.60 347.98,110.28 348.36,110.02C348.73,109.77 349.16,109.58 349.65,109.45C350.13,109.32 350.63,109.25 351.14,109.25C352.05,109.25 352.86,109.41 353.58,109.72L353.58,111.42C352.81,110.92 351.92,110.67 350.91,110.67C350.59,110.67 350.31,110.71 350.06,110.78C349.81,110.85 349.60,110.96 349.41,111.09C349.23,111.22 349.09,111.37 348.99,111.55C348.89,111.72 348.84,111.92 348.84,112.14C348.84,112.42 348.89,112.65 348.99,112.84C349.09,113.02 349.24,113.18 349.43,113.33C349.62,113.47 349.85,113.60 350.12,113.72C350.40,113.83 350.71,113.96 351.06,114.09C351.52,114.27 351.93,114.45 352.30,114.64C352.67,114.83 352.99,115.04 353.25,115.27C353.51,115.51 353.71,115.78 353.85,116.09C353.99,116.39 354.06,116.76 354.06,117.19C354.06,117.71 353.95,118.16 353.72,118.55C353.49,118.93 353.18,119.25 352.80,119.50C352.41,119.75 351.97,119.94 351.48,120.06C350.98,120.19 350.46,120.25 349.91,120.25C348.82,120.25 347.89,120.04 347.09,119.62ZM362.00,119.89C361.60,120.11 361.08,120.22 360.42,120.22C358.59,120.22 357.67,119.20 357.67,117.16L357.67,110.94L355.86,110.94L355.86,109.50L357.67,109.50L357.67,106.94L359.34,106.39L359.34,109.50L362.00,109.50L362.00,110.94L359.34,110.94L359.34,116.86C359.34,117.56 359.46,118.06 359.70,118.36C359.94,118.66 360.34,118.81 360.89,118.81C361.32,118.81 361.69,118.70 362.00,118.47L362.00,119.89ZM372.95,115.17L365.55,115.17C365.57,116.34 365.88,117.24 366.48,117.88C367.09,118.51 367.92,118.83 368.97,118.83C370.15,118.83 371.23,118.44 372.22,117.66L372.22,119.23C371.30,119.91 370.08,120.25 368.56,120.25C367.08,120.25 365.92,119.77 365.07,118.82C364.22,117.87 363.80,116.53 363.80,114.80C363.80,113.16 364.26,111.83 365.19,110.80C366.11,109.77 367.27,109.25 368.64,109.25C370.02,109.25 371.08,109.70 371.83,110.59C372.58,111.48 372.95,112.71 372.95,114.28L372.95,115.17ZM371.23,113.75C371.22,112.77 370.99,112.01 370.53,111.48C370.07,110.94 369.43,110.67 368.61,110.67C367.82,110.67 367.14,110.96 366.59,111.52C366.03,112.09 365.69,112.83 365.56,113.75L371.23,113.75ZM381.38,111.20C381.08,110.97 380.66,110.86 380.11,110.86C379.39,110.86 378.79,111.20 378.31,111.88C377.83,112.55 377.59,113.47 377.59,114.64L377.59,120.00L375.91,120.00L375.91,109.50L377.59,109.50L377.59,111.66L377.62,111.66C377.86,110.93 378.23,110.35 378.73,109.94C379.22,109.52 379.77,109.31 380.38,109.31C380.81,109.31 381.15,109.36 381.38,109.45L381.38,111.20Z" fill="#5FA8A1"/>
</svg>
